Patient4_TMGait_0pt5_01_right_40_EMG.mot
version=1
nRows=40
nColumns=33
inDegrees=no
endheader
time	1LAddLong	2LGlutMax	3LGlutMed	4LIliopsoas	5LSemiMemb	6LBicFemLong	7LRecFem	8LVastMed	9LVastLat	10LGasMed	11LTibAnt	12lTibPost	13LPeroneusLong	14LSol	15LExtDigLong	16LFlexDigLong	17RAddLong	18RGlutMax	19RGlutMed	20RIliopsoas	21RSemiMemb	22RBicFemLong	23RRecFem	24RVastMed	25RVastLat	26RGasMed	27RTibAnt	28RTibPost	29RPeroneusLong	30RSol	31RExtDigLong	32RFlexDigLong
53.585	-0.046692	0.22476	0.048065	-0.002747	-0.024109	0.31113	-0.07431	0.003052	-0.062561	-0.19882	0.013885	0.009918	0.11597	0.036774	0.1799	0.008392	-0.034637	-0.29175	-0.083466	0.019226	0.33234	0.40375	-0.20462	0.10193	-0.002136	-0.028839	0.010376	-0.040436	-0.22369	1.8941	-0.001678	-0.011139
53.586	-0.027313	0.23056	0.052032	0.003204	-0.12711	0.26977	-0.080109	0.003357	-0.016022	-0.13138	0.10193	0.010071	0.062103	0.11368	0.60242	0.00885	-0.048676	-0.28748	-0.079803	0.002441	0.36041	0.18677	-0.1886	0.10498	-0.013885	0.000916	0.083923	-0.12054	-0.32776	2.3141	-0.002441	-0.014038
53.587	-0.003052	0.15762	0.054626	0.008545	-0.1622	0.1416	-0.024109	-0.003357	0.055237	-0.033264	0.077667	0.00473	-0.003052	0.12985	0.079193	0.009766	-0.020447	-0.23285	-0.051575	0.023804	0.34531	0.11627	-0.17716	0.074615	-0.03479	-0.061035	0.11826	-0.13092	-0.71564	1.9096	-0.00473	-0.006714
53.588	0.035553	0.18997	0.040894	0.008087	-0.10056	0.021057	0.003052	-0.01236	0.076294	0.023346	0.056763	0.009766	-0.018921	0.13672	-0.26794	0.0177	0.007324	-0.19882	0.018463	0.010376	0.28641	0.085144	-0.10788	-0.008545	-0.036621	-0.021362	0.044403	-0.009155	-0.3952	0.26779	-0.005493	-0.004272
53.589	0.048523	0.12833	0.031586	0.016632	-0.061035	-0.032043	0.023346	-0.010376	0.03952	0.070953	-0.016937	0.014191	0.032806	0.06958	-0.31662	0.012665	0.016632	-0.23331	-0.018463	0.03418	0.057526	0.040894	-0.09613	-0.027313	-0.035553	0.074158	0.016632	-0.00473	-0.1648	-0.50781	-0.001068	-0.010071
53.59	0.046844	0.13001	0.025024	0.020752	0.076294	-0.11078	0.031433	-0.005798	0.021057	0.12238	-0.086517	0.011597	0.051422	0.000153	-0.31555	0.020294	-0.009766	-0.19852	-0.032501	0.027466	-0.07431	-0.05249	-0.1181	-0.030975	0.002136	0.037537	0.014954	0.014801	-0.19943	-0.79269	-0.006866	-0.007935
53.591	0.024567	0.13077	0.009613	0.011139	0.14191	-0.25543	0.014954	0.000916	-0.016785	0.14313	-0.089264	0.012054	0.062408	-0.047302	-0.27313	0.028076	-0.003052	-0.1976	-0.090485	0.001373	-0.21332	-0.059204	-0.1178	-0.026703	0.025024	-0.046387	0.034027	0.056152	-0.13306	-1.0341	0.000458	-0.015411
53.592	0.027771	0.10239	-0.011444	0.019684	0.12863	-0.27435	-0.004425	-0.00473	-0.04303	0.053711	0.080261	0.027161	0.054321	-0.12619	-0.16602	0.037231	-0.003357	-0.20187	-0.049286	0.004883	0.085144	-0.17258	-0.06485	0.006409	0.040131	-0.12924	0.033875	0.069885	-0.069275	-0.7077	0.001526	-0.015411
53.593	0.009308	0.066528	-0.005646	0.016632	0.071564	-0.12482	-0.01236	0.001221	-0.056915	0.10757	0.16357	0.019836	0.017548	-0.2803	-0.079956	0.045471	0.006256	-0.12039	-0.088348	-0.059662	0.089264	-0.023193	-0.063171	0.030518	0.029755	-0.23956	0.05127	-0.024719	0.010071	-0.27206	0.00412	-0.017242
53.594	0.004272	0.044403	0.007629	0.023804	-0.014648	0.034637	-0.06134	0.000763	-0.11154	0.23178	0.094757	0.023651	0.031128	-0.19165	-0.010529	0.061798	0.014648	-0.09491	-0.087128	-0.083618	-0.017395	0.083923	-0.016632	0.12909	0.014038	-0.28931	0.044098	-0.089569	0.3093	-0.20126	0.00473	-0.017853
53.595	-0.006866	0.07431	0.003967	0.005341	-0.066833	0.19409	-0.1236	-0.011902	-0.10605	0.14023	0.046844	0.020142	0.012207	-0.081177	0.032349	0.072632	0.031891	-0.1648	-0.10071	0.037384	0.103	0.005188	0.075531	0.10666	-0.09201	-0.32089	-0.019836	-0.40894	0.31601	-0.032501	0.002289	-0.009308
53.596	-0.010223	0.073547	0.000305	0.00946	-0.082092	0.26489	-0.16785	-0.007019	-0.067749	0.045471	0.0354	0.025177	-0.00946	0.006561	0.050049	0.065308	0.036621	-0.12772	0.033417	0.021515	0.19196	-0.089111	0.059357	-0.066681	-0.16251	-0.078125	-0.061798	0.14847	0.27527	0.0737	0.004883	-0.0177
53.597	-0.018616	0.067291	0.010223	0.016632	-0.076599	0.24735	-0.13275	0.001831	-0.012665	0.020447	0.042572	0.03067	-0.015411	0.066376	0.098267	0.054932	-0.02655	-0.12711	0.27618	0.003815	0.11124	-0.071411	-0.51392	-0.24887	-0.18234	0.26428	0.11566	0.18372	0.13275	-0.069427	0.001373	-0.018311
53.598	-0.021973	0.068207	0.016632	0.015869	-0.017395	0.17288	-0.043182	-0.00351	-0.017242	-0.076752	0.042267	0.032806	-0.030212	0.050201	0.06012	0.048218	-0.033875	-0.12222	0.10605	0.007172	-0.09552	0.009308	-0.69244	-0.20371	-0.12604	0.21316	0.32196	-0.002136	0.024109	-0.5629	0.000763	-0.023651
53.599	-0.022736	0.043488	0.030365	0.008545	0.10178	0.010223	-0.10422	-0.000153	-0.020905	-0.052643	0.080109	0.03479	-0.026855	-0.028839	0.04837	0.043182	-0.017548	-0.12894	0.19119	0.028534	-0.21606	0.0354	-0.51483	0.014954	0.067902	0.12253	0.30823	-0.19684	-0.07843	-0.81848	0.004578	-0.018158
53.6	-0.016785	0.031433	0.029449	0.004883	0.13107	-0.004272	-0.10727	0.001526	0.019531	-0.095825	0.077667	0.033875	-0.026703	-0.048218	0.049896	0.029602	-0.001068	-0.1535	0.11307	-0.003662	-0.048523	-0.054626	-0.41473	0.081482	-0.019531	0.16083	0.30716	-0.63767	-0.23422	-0.30258	0.001526	-0.021667
53.601	-0.005035	0.075684	0.024719	0.004272	0.036163	-0.006256	-0.11795	-0.002899	0.065308	-0.20569	0.048523	0.027008	-0.014038	-0.033569	0.03067	0.02533	-0.009308	-0.13062	0.014954	0.029755	-0.021057	0.002594	-0.33447	0.044403	-0.12802	0.12604	-0.16846	0.23651	-0.14923	-0.06073	0	-0.011597
53.602	-0.014343	0.1886	0.017242	0.020752	-0.037079	-0.15243	-0.062714	-0.000458	0.11475	-0.11963	0.040131	0.024261	0.011597	-0.025635	0.032349	0.019836	-0.00885	-0.17685	0.018463	0.043488	-0.20111	0.071106	-0.34393	-0.035553	-0.13062	0.1149	-1.1856	0.32989	0.016479	-0.24475	0.000916	-0.015106
53.603	-0.007324	0.22537	0.014954	0.008087	-0.072479	-0.11826	-0.017853	-0.003815	0.10025	0.018921	0.027466	0.018311	0.020447	-0.065002	0.032654	0.00351	-0.015411	-0.11978	0.12756	0.034027	-0.21469	-0.004883	-0.39963	-0.018005	0.061035	0.09903	-1.4609	0.11215	0.12665	0.043488	0.001984	-0.007324
53.604	-0.002289	0.22247	0.005646	0.009918	-0.007935	-0.056763	0.005188	-0.003662	0.084381	0.021362	-0.009003	0.020142	0.054321	0.18677	0.014191	0.011444	-0.023651	-0.17364	-0.016937	0.0737	-0.052185	-0.053406	-0.44464	0.067749	0.22324	0.11597	-0.80978	0.024719	0.20218	-0.081635	0.000458	-0.013885
53.605	-0.006409	0.18814	0.033722	0.007629	0.006409	0.06073	0.03067	0.006561	0.012054	0.050354	-0.027618	0.03479	0.014343	0.5191	0.013275	-0.001373	-0.048065	-0.16464	0.026093	0.075684	-0.12573	-0.05127	-0.40832	0.22232	0.21057	0.11108	0.11231	-0.001831	0.3212	0.066986	0.001526	-0.010834
53.606	-0.027618	0.2121	0.054169	0.005798	-0.010681	0.021515	0.030365	0.001678	0.029297	0.080261	-0.023956	0.019531	-0.011902	0.56335	-0.00824	-0.006866	-0.004578	-0.12131	0.14984	0.031128	-0.11597	0.039368	-0.29037	0.1886	0.06958	0.080566	0.42877	0.09079	0.41397	0.12558	0.000458	-0.012054
53.607	-0.031128	0.21668	0.079193	0.009308	-0.016937	-0.02655	-0.058289	0.015411	0.090942	-0.098877	0.01709	0.027313	-0.001526	0.29739	-0.007935	0.000153	-0.005493	-0.177	0.079346	0.06424	0.004272	0.093994	-0.22919	0.049133	0.006866	0.052795	0.54169	0.046234	0.045471	0.29327	0.001984	-0.016937
53.608	-0.024719	0.20187	0.10178	0.02533	-0.047913	-0.066528	-0.11017	0.008087	0.12466	-0.10941	0.037994	0.017242	-0.049286	0.020294	0.015106	0.034332	-0.014801	-0.20035	0.15472	0.056915	-0.018616	-0.027466	-0.25711	0.14816	0.022278	0.049744	0.5722	0.001678	-0.23712	0.16861	0.006866	-0.023041
53.609	-0.002136	0.25391	0.085297	0.015106	-0.10956	-0.20737	-0.17746	-0.001678	0.13657	-0.024261	0.036621	0.014496	-0.16754	-0.10254	0.006409	0.052185	-0.003052	-0.13825	0.008087	0.033875	-0.036621	-0.05188	-0.28198	0.14404	0.019684	0.037994	0.26108	-0.010681	-0.17868	-0.061035	0.006104	-0.023193
53.61	0.025787	0.25681	0.075378	0.022125	-0.12344	-0.34149	-0.20996	-0.001526	0.098724	-0.065002	0.030518	0.015106	-0.13168	0.005493	0.020142	0.055847	0.021362	-0.17883	0.011902	0.039825	-0.045624	-0.14008	-0.27069	0.087585	0.054169	0.012665	-0.028229	0.039063	-0.085449	-0.14069	0.002594	-0.019226
53.611	0.043488	0.22522	0.072021	0.007935	-0.006104	-0.40543	-0.19852	-0.014191	0.12054	-0.082855	0.019836	0.016632	-0.26337	0.083923	0.013428	0.052185	0.036011	-0.19241	-0.02243	0.00946	-0.03418	-0.23972	-0.28107	0.088959	0.063477	-0.048523	-0.036316	0.046387	0.074768	-0.27496	0.000305	-0.026703
53.612	0.050812	0.17288	0.065765	0.008087	0.078278	-0.3685	-0.12283	-0.019989	0.14542	-0.063477	0.030365	0.012665	0.33707	0.23575	-0.001068	0.039978	0.049744	-0.21271	0.070953	-0.092621	-0.085144	-0.29404	-0.298	0.00946	0.034943	-0.036011	0.10498	0.13046	0.16434	-0.44998	0.001831	-0.029602
53.613	0.043945	0.1442	0.044708	0.019379	0.14114	-0.23163	-0.035095	-0.003204	0.12131	-0.08667	0	0.012665	0.5632	0.42267	0.0354	0.025482	0.054016	-0.11688	-0.18677	-0.16022	-0.22201	-0.21164	-0.24292	-0.002899	0.052338	-0.029144	0.1474	-0.72937	0.2211	-0.13809	0.001831	-0.018311
53.614	0.023499	0.1181	0.051422	0.013428	0.14557	-0.22492	0.027618	-0.007172	-0.0737	-0.058594	-0.009918	0.0177	0.62195	0.44647	0.085754	0.017853	0.028687	-0.10452	-0.061646	-0.13641	-0.38498	-0.12756	-0.26718	0.026703	0.11002	-0.026855	0.31036	-0.48874	-0.00351	0.22781	0.002747	-0.024109
53.615	0.001831	0.13138	0.030823	0.010986	0.052795	-0.089111	0.055542	0.011902	-0.24124	-0.047455	-0.028229	0.014038	0.46814	0.42221	0.053711	0.006104	0.047913	-0.13626	0.14832	-0.14389	-0.34805	-0.067139	-0.19379	0.000763	0.1503	-0.027771	0.27695	0.29907	-0.10178	0.44907	0.00351	-0.021362
53.616	-0.013123	0.19745	0.032959	0.00351	-0.041351	-0.004425	0.055847	0.009613	-0.27573	-0.095825	-0.027771	0.004883	-0.14114	0.40558	0.022583	0.004883	0.068359	-0.09552	0.26077	-0.042572	0.007019	-0.10757	-0.058746	-0.057983	0.1294	0.012817	0.36163	0.39429	0.042725	1.1095	0.006561	-0.015259
53.617	-0.019836	0.17868	-0.010376	0.001831	-0.09964	0.000763	0.041656	0.010834	-0.23117	-0.075378	-0.013123	-0.005646	-0.57358	0.26291	-0.034943	-0.005798	0.064392	-0.15915	0.23361	0.097961	0.089569	-0.18127	0.004272	-0.084686	0.14328	-0.011444	0.51132	0.14877	0.031281	1.0966	-0.002899	0.000763
53.618	-0.014343	0.12146	0.005341	0.010834	-0.12451	-0.087433	0.073395	0.009766	-0.15915	-0.066528	0.026703	-0.012512	-0.55969	0.12482	-0.065613	-0.020142	0.013733	-0.22278	0.091095	0.20493	0.30624	-0.11429	-0.086823	0.026703	0.22461	-0.013275	0.30502	0.028839	0.17777	0.29007	0.004578	0.010376
53.619	-0.012817	0.11887	0.035095	0.024109	-0.077972	-0.0737	0.074768	0.013275	-0.14328	-0.11063	0.023956	0.002289	-0.38528	0.079956	-0.049896	-0.035095	0.012665	-0.18463	0.17425	0.17212	0.21622	0.025177	-0.26276	-0.010223	0.30167	-0.005035	-0.18127	-0.001373	0.093536	0.059814	0.001068	0.003204
53.62	0.008698	0.15945	0.074615	0.014038	0.008698	-0.061951	0.069427	-0.002289	-0.17944	-0.16449	-0.001984	0.000305	-0.058899	0.11917	-0.019379	-0.041962	-0.00885	-0.16602	0.13657	0.067139	-0.034485	0.26916	-0.49408	0.021973	-0.023956	-0.009308	-0.25818	-0.017853	-0.2803	0.12314	0.003357	-0.007324
53.621	0.001984	0.16083	0.09201	0.021973	0.094147	-0.16098	0.029907	0.007324	-0.16159	-0.12772	-0.001221	-0.007172	-0.083923	0.094757	-0.083313	-0.04837	-0.003052	-0.19852	0.15823	0.034485	0.027924	0.28107	-0.47867	0.03067	-0.43488	-0.003967	-0.40787	-0.024109	-0.33234	-0.081177	0.000458	-0.008698
53.622	0.009308	0.1683	0.097961	0.022736	0.12177	-0.25238	-0.004578	0.014191	-0.05188	-0.10223	-0.021667	-0.008392	-0.14648	0.10269	-0.11154	-0.051422	-0.016785	-0.15045	0.11993	-0.027618	0.033264	0.046997	-0.41214	0.10315	-0.21133	0.003204	-0.82871	-0.014038	-0.16373	-0.39169	0.003357	-0.006256
53.623	0.007019	0.11215	0.07782	0.011749	0.097504	-0.34485	0.027313	0.01358	0.010376	-0.10651	-0.020142	-0.019073	-0.29205	0.1471	-0.030212	-0.054016	-0.01358	-0.14694	0.1268	-0.068207	0.14481	-0.22171	-0.32135	0.15274	-0.089722	0.001068	-1.0951	-0.026093	0.1178	-0.88272	0.003357	-0.008545
53.624	-0.003357	0.1088	0.12207	0.011292	0.03006	-0.25253	0.004425	-0.022888	-0.010223	0.021057	-0.019684	-0.023041	-0.18234	0.1503	0.039368	-0.057526	0.024109	-0.14099	-0.007935	-0.056305	0.13809	-0.38483	-0.24017	0.13504	-0.06897	-0.011444	-0.78583	-0.037689	0.30914	-0.88272	0.004272	-0.01709
